<svg xmlns="http://www.w3.org/2000/svg" version="1.1" xmlns:xlink="http://www.w3.org/1999/xlink" xmlns:svgjs="http://svgjs.dev/svgjs" width="100%" height="100%" viewBox="0 0 1000 600"><rect width="1000" height="600" x="0" y="0" fill="#ffffff"/><g><rect width="333.3333333333333" height="333.3333333333333" rx="13.333333333333334" ry="13.333333333333334" y="117.66211389408633" fill="#44d62c" transform="matrix(1.3097248884927217,0,0,1.3097248884927215,0,-72.3924754189998)" x="95.43988800048828"/><path d="M159.394978787458 212.28431350749042L159.394978787458 356.3732583016851L246.6533747362768 356.3732583016851L246.6533747362768 340.75119063988035L178.39479080857177 340.75119063988035L178.39479080857177 212.28431350749042L159.394978787458 212.28431350749042ZM260.9243446543578 315.81217812031474L260.9243446543578 316.994388646073Q260.9243446543578 336.5853059300658 275.2516103117606 347.9570452730732Q289.6070238388243 359.32878461608055 313.36382583263173 359.32878461608055L313.36382583263173 359.32878461608055Q337.1206278264392 359.32878461608055 350.9693796996066 347.9570452730732Q364.81813157277395 336.5853059300658 364.81813157277395 318.7677044347102L364.81813157277395 318.7677044347102Q364.81813157277395 300.9501029393546 354.3189761892547 291.15464429735823Q343.84796867539654 281.3591856553618 320.6822719444682 274.8288798940308L320.6822719444682 274.8288798940308Q297.5165752135398 268.2985741326999 290.1136854927207 262.8660352881444Q282.68264790224066 257.405348573928 282.68264790224066 248.0039601071843L282.68264790224066 248.0039601071843Q282.68264790224066 237.61739620230878 289.91665040509434 231.5937520948742Q297.1225050382871 225.5419601177787 312.3786503944999 225.5419601177787L312.3786503944999 225.5419601177787Q327.60664788105186 225.5419601177787 335.319164168141 232.578927533006Q343.0598283248911 239.61589494823335 343.0598283248911 251.0720779002234L343.0598283248911 251.0720779002234L343.0598283248911 252.28243629564253L362.0596403460048 252.28243629564253L362.0596403460048 251.0720779002234Q362.0596403460048 232.86040622961508 348.6049586480902 221.094596711355Q335.12212908051464 209.32878719309494 312.3786503944999 209.32878719309494L312.3786503944999 209.32878719309494Q289.6070238388243 209.32878719309494 276.74344740378876 220.50349144847593Q263.87987096875327 231.67819570385691 263.87987096875327 248.51062176108064L263.87987096875327 248.51062176108064Q263.87987096875327 265.3430478183044 273.6753296107497 274.4911054580999Q283.4707882527461 283.63916309789545 307.0305551589272 290.4790954254964L307.0305551589272 290.4790954254964Q329.68959023595914 297.00940118682735 337.85247243762285 302.9486016852792Q346.01535463928656 308.85965431407016 346.01535463928656 318.7677044347102L346.01535463928656 318.7677044347102Q346.01535463928656 329.66092999348217 337.5991416106747 336.38827084243945Q329.1829285820628 343.11561169139674 313.36382583263173 343.11561169139674L313.36382583263173 343.11561169139674Q297.5165752135398 343.11561169139674 288.73443987933615 336.5853059300658Q279.9241566754715 330.0550001687349 279.9241566754715 316.994388646073L279.9241566754715 316.994388646073L279.9241566754715 315.81217812031474L260.9243446543578 315.81217812031474Z " fill="#222222" transform="matrix(1.3097248884927217,0,0,1.3097248884927215,0,-72.3924754189998)"/><path d="M512.1065571647185 284.41411146013496L512.1065571647185 284.41411146013496Q512.1065571647185 315.6427771494754 532.0724253923297 337.4857782873748Q552.2089420663306 359.32877942527415 590.0928971648748 359.32877942527415L590.0928971648748 359.32877942527415Q627.8062038170291 359.32877942527415 647.9427204910301 337.4857782873748Q668.079237165031 315.6427771494754 668.079237165031 284.41411146013496L668.079237165031 284.41411146013496Q668.079237165031 253.1854457707945 647.9427204910301 231.34244463289517Q627.8062038170291 209.328795048606 590.0928971648748 209.328795048606L590.0928971648748 209.328795048606Q552.2089420663306 209.328795048606 532.0724253923297 231.34244463289517Q512.1065571647185 253.1854457707945 512.1065571647185 284.41411146013496Z " fill="#c5fad5" transform="matrix(1.3097248884927217,0,0,1.3097248884927215,0,-72.3924754189998)"/></g></svg>